Patient4_TMGait_0pt7_01_right_35_EMG.mot
version=1
nRows=23
nColumns=33
inDegrees=no
endheader
time	1LAddLong	2LGlutMax	3LGlutMed	4LIliopsoas	5LSemiMemb	6LBicFemLong	7LRecFem	8LVastMed	9LVastLat	10LGasMed	11LTibAnt	12lTibPost	13LPeroneusLong	14LSol	15LExtDigLong	16LFlexDigLong	17RAddLong	18RGlutMax	19RGlutMed	20RIliopsoas	21RSemiMemb	22RBicFemLong	23RRecFem	24RVastMed	25RVastLat	26RGasMed	27RTibAnt	28RTibPost	29RPeroneusLong	30RSol	31RExtDigLong	32RFlexDigLong
41.053	0.011749	0.092621	0.15732	0.024109	-0.088959	-0.11215	0.071869	0.002899	0.005341	-0.069275	0.013123	0.049438	0.015106	-0.15472	0.74814	0.016632	0.015717	0.066071	0.27649	-0.056458	-0.057678	0.041351	0.050049	-0.06897	0.020752	0.48416	0.024567	-0.00946	0.031281	-0.035858	-0.001831	0.013733
41.054	0.013428	0.097504	0.13107	0.011902	-0.003815	-0.1062	0.095825	0.000763	-0.010834	-0.1207	-0.021515	0.044403	0.070801	-0.050812	-0.17273	0.015564	0.044861	-0.000916	-0.011444	-0.16037	-0.24887	0.044403	0.015564	-0.045471	0.019684	0.36682	0.026398	-0.011444	0.034027	-0.022278	-0.001526	0.015869
41.055	0.001221	0.065002	0.084534	0.014801	0.073395	-0.034332	0.090485	-0.000305	0.011597	-0.13855	-0.047607	0.057831	0.20081	0.056915	-0.22949	0.024414	0.02594	-0.06424	-0.27786	-0.23911	-0.34653	0.039673	0.031128	-0.071869	-0.002441	0.24033	0.077667	-0.009766	0.029297	-0.011597	-0.001068	0.02182
41.056	0.003815	0.073853	0.13641	-0.007324	0.045166	0.079651	0.071411	0.008087	0.13092	-0.11917	-0.082245	0.06134	0.2449	0.009918	-0.23422	0.016632	0.029144	-0.10696	-0.7515	-0.15396	-0.24933	0.056458	0.020447	-0.052795	0.003967	0.1442	0.15518	-0.009766	-0.054626	-0.033875	-0.000305	0.010071
41.057	-0.001678	0.067444	0.068207	0.021057	0.013733	0.091095	0.065918	-0.000153	0.025177	-0.078888	-0.097198	0.070038	0.15243	-0.006561	-0.052185	-0.001678	-0.00473	-0.097504	-0.75394	0.027618	0.30045	0.087433	0.042267	-0.086212	0.019531	0.077209	0.17212	-0.009918	-0.019684	-0.056458	-0.002441	0.015564
41.058	0.004883	0.059509	0.076752	0.016937	-0.05661	0.039368	0.076752	-0.000305	-0.024872	-0.091248	-0.019989	0.068054	0.18982	0.0354	0.50934	0.014038	-0.047455	-0.086823	-0.4274	0.27237	0.55954	0.06424	0.033112	-0.0177	0.037842	0.030823	0.15411	-0.010681	0.006256	-0.057983	-0.002747	0.015717
41.059	0.032196	0.11154	0.13702	-0.022736	-0.054321	0.011139	0.05722	-0.003662	-0.002441	-0.11063	0.16754	0.06073	0.12451	0.16144	0.071106	0.002594	-0.024109	0.03067	-0.24048	0.38757	0.29678	0.02243	0.028839	-0.001068	0.021057	0.00885	0.12116	-0.006256	-0.09964	-0.067444	-0.002747	0.012054
41.06	0.038452	0.098724	-0.043945	-0.036926	0.009613	0.053406	0.046387	-0.010223	0.029449	-0.05722	0.10681	0.081024	-0.055695	0.10574	0.14725	-0.003967	-0.005798	0.084686	0.11795	0.21316	0.13641	0.003204	0.044403	-0.041504	0.033112	-0.00824	0.0737	-0.007019	-0.17532	-0.077667	-0.001526	0.013428
41.061	0.025024	0.051117	0.01297	-0.024567	-0.00473	0.01236	0.047913	0.018311	0.00061	0.051575	0.029297	0.13458	0.008087	0.1059	0.17288	0.002136	0.012512	0.031281	0.2713	-0.086517	0.093079	-0.006256	0.075073	-0.06134	0.02533	-0.024567	0.039215	-0.011292	-0.091248	-0.073853	-0.002899	0.008545
41.062	0.020752	0.053558	0.13886	-0.01709	0.034027	0.003052	0.002441	0.005493	0.029297	0.080261	-0.02182	0.18799	0.040436	0.094147	0.12283	-0.005341	0.017548	0.013123	0.78995	-0.34714	0.019684	-0.012665	0.075836	-0.083923	0.017395	-0.027771	0.040436	-0.007782	0.006256	-0.085144	-0.002136	0.009766
41.063	0.014343	0.042419	0.077972	-0.012665	0.0354	0.000153	0.020599	-0.005951	0.082703	0.11047	-0.042419	0.22903	0.39887	-0.067139	0.032501	-0.014038	0.011292	-0.080872	0.8374	-0.43411	-0.042877	-0.010376	0.040588	-0.082855	0.021362	-0.035095	0.17319	-0.01236	0.066833	-0.064087	-0.003357	0.00946
41.064	0.015564	0.011597	0.14099	0.00946	-0.040436	0.032501	0.08667	0.001831	0.065765	0.072632	-0.041962	0.25269	0.1471	-0.12955	0.006866	-0.009003	0.018311	-0.20706	0.17227	-0.37903	-0.10941	-0.10147	0.023804	-0.099487	0.021667	-0.044403	0.2385	-0.006256	0.081177	-0.047455	-0.001831	0.009766
41.065	0.011444	-0.008392	0.011597	0.002289	-0.082092	0.066681	0.12329	-0.000153	0.055542	0.048523	-0.002136	0.25696	-0.26916	-0.15976	-0.030518	-0.003052	0.011749	-0.177	-0.52902	-0.16205	-0.04364	-0.074463	0.056	-0.11704	0.020905	-0.065308	0.12894	-0.004425	0.031891	-0.027466	-0.000916	0.01358
41.066	0.009766	0.072479	-0.084686	0.006714	-0.045319	0.10742	0.11276	-0.002899	0.029907	0.04425	0.041809	0.26886	0.080414	-0.10986	-0.079651	-0.001373	0.007629	-0.084839	-1.0078	0.10483	0.06546	0.009155	0.08667	-0.11444	0.005188	-0.080261	0.12039	-0.00885	-0.063019	-0.017853	-0.001068	0.00946
41.067	0.00824	0.044098	-0.051422	-0.013428	0.088959	0.1535	0.1471	-0.004578	0.041962	0.027924	0.1506	0.27329	0.28488	0.02182	0.041351	-0.001068	-0.004578	-0.053101	-0.88104	0.36652	0.25848	0.073242	0.079803	-0.086517	0.00351	-0.084839	0.059357	-0.012512	-0.21683	-0.025635	0.000458	0.003204
41.068	0.022736	-0.011444	-0.007019	-0.016327	0.033722	0.10178	0.13275	-0.001068	0.039368	0.030975	0.16907	0.28397	0.30075	0.18021	0.13596	0.022125	0.00061	-0.025635	-0.19562	0.46936	0.19257	0.056458	0.088043	-0.080566	0.032043	-0.064545	-0.092926	-0.009308	-0.1329	-0.028992	-0.00061	0.00061
41.069	0.0177	-0.003052	0.25345	-0.005493	-0.00946	-0.082855	0.076447	0	0.02243	0.041046	0.038605	0.27725	-0.049133	0.12405	0.029602	0.009918	-0.007935	-0.082703	0.18509	0.61645	0.076294	0.057373	0.061951	-0.023956	0.027466	-0.047455	0.025787	-0.008392	0.042267	-0.041962	0.002289	0.006409
41.07	0.018005	-0.007172	0.027466	-0.001526	0.043945	-0.18799	0.095673	-0.000916	0.034637	0.045624	0.081177	0.26398	-0.11047	0.007629	0.029907	-0.005188	-0.016632	-0.10361	0.088043	0.56488	-0.023499	0.040283	0.061646	0.005951	0.023346	-0.045319	-0.10071	-0.013123	0.1001	-0.056152	-0.000916	0.000763
41.071	0.016479	-0.005188	0.030823	0.027618	0.14053	-0.13062	0.12451	0.006256	0.056	0.000458	0.1004	0.24048	0.082245	0.08606	0.015717	-0.005493	-0.009613	-0.084839	-0.7959	0.28168	0.006866	0.11719	0.083771	0.070648	0.010223	-0.054932	-0.1915	-0.002594	0.03479	-0.043182	-0.000153	0.002136
41.072	0.006104	0.034485	0.022736	-0.009308	0.12436	-0.037079	0.12207	0.020294	0.092468	-0.023804	0.073242	0.20874	0.27298	0.21469	-0.056458	-0.010834	-0.014343	0.007477	-0.91766	-0.027313	0.036011	0.2124	0.1152	0.064392	0.027161	-0.053406	-0.18188	-0.011139	0.26382	-0.04303	0.001526	-0.002747
41.073	0.008392	-0.02594	-0.046082	-0.03418	0.06073	-0.006256	0.14725	0.010223	0.063934	-0.082703	0.15442	0.17716	-0.22263	0.18402	0.044403	0.005493	-0.002289	0.058441	-0.29236	-0.13031	0.046692	0.18539	0.074463	0.049286	0.02655	-0.053711	-0.23071	-0.012054	0.020294	-0.012817	-0.001068	-0.004425
41.074	-0.002289	-0.004272	0.060272	-0.00946	0.020294	0.005035	0.18753	0.013885	0.006104	-0.17349	0.043335	0.14206	-0.30701	0.15289	-0.029907	0.01236	-0.001831	0.05249	0.11963	-0.096741	-0.004272	0.1059	0.12177	0.049591	0.032349	-0.05188	-0.37445	-0.014954	-0.080872	0.01236	-0.000458	-0.000916
41.075	0.016174	0.010376	0.26413	0.001678	-0.004425	-0.023651	0.2066	0.004578	0.011139	-0.31647	-0.12711	0.11093	-0.012665	0.087433	0.074158	0.005798	0.007172	0.099945	0.53101	-0.048065	-0.090942	-0.021515	0.059357	0.024567	0.029602	-0.053253	-0.16983	-0.014343	0.035553	0.008698	0.000305	0.000916
